<svg xmlns="http://www.w3.org/2000/svg" data-name="Layer 1" viewBox="0 0 64 64" id="budget-spending"><path fill="#f5e0a3" d="M61.18,39.67a3.16,3.16,0,0,0-2.44-1.2h-1c-.24,0-.52,0-6,2.37a13.33,13.33,0,0,1-4.27,1.29l-3,.39a18,18,0,0,1-6.29-.31l-2.71-.62H37a3.24,3.24,0,0,0,2.77-1.67,3.86,3.86,0,0,0-.9-4.94l-.45-.34A3,3,0,0,0,36.57,34H22a7,7,0,0,0-4.75,1.9l-1.12,1c-1.05,1-2.93,1.07-4.25,1.07H9V51.89l0,1a49.26,49.26,0,0,1,5.24.48l5.85,1.17a24.79,24.79,0,0,0,4.7.46h8.73A29.85,29.85,0,0,0,46.8,51.86l13.27-6.51a3.52,3.52,0,0,0,1.84-2.44A3.91,3.91,0,0,0,61.18,39.67Z"></path><path fill="#004d61" d="M7.34,32H2V58H7.34A2.66,2.66,0,0,0,10,55.34V34.66A2.66,2.66,0,0,0,7.34,32Z"></path><path fill="#f5e0a3" d="M51.53,35.49a2.75,2.75,0,0,0-2.34-.38l-.27.07a3.44,3.44,0,0,0-.69.3.57.57,0,0,0-.16.11l-4.25,3.6A15.22,15.22,0,0,1,38.89,42l-1,.31.31.95h0l.31,1,1-.31a17.71,17.71,0,0,0,1.7-.68l6.38-.1h0v1a1,1,0,0,0,.5-.14,21.88,21.88,0,0,0,2.6-1.75l.85-.67A3.84,3.84,0,0,0,53,38.93a4.55,4.55,0,0,0,0-.82A3.56,3.56,0,0,0,51.53,35.49Z"></path><rect width="2" height="14" x="4" y="40" fill="#005995"></rect><circle cx="42" cy="16" r="13" fill="#00a03e"></circle><path fill="#aacd6e" d="M42,15a1.08,1.08,0,0,1-1.14-1A1.08,1.08,0,0,1,42,13h.4a1.25,1.25,0,0,1,.83.32l1.09,1,1.36-1.46-1.08-1a3.16,3.16,0,0,0-1.6-.8V9H41v2.17A3,3,0,0,0,38.86,14,3.08,3.08,0,0,0,42,17a1,1,0,1,1,0,2h-.4a1.25,1.25,0,0,1-.83-.32l-1.09-1-1.36,1.46,1.08,1a3.16,3.16,0,0,0,1.6.8V23h2V20.83A3,3,0,0,0,45.14,18,3.08,3.08,0,0,0,42,15Z"></path><circle cx="5" cy="37" r="2" fill="#fcbe32"></circle></svg>